<?xml version="1.0" encoding="UTF-8"?><svg xmlns="http://www.w3.org/2000/svg" xmlns:xlink="http://www.w3.org/1999/xlink" fill-opacity="1" color-rendering="auto" color-interpolation="auto" text-rendering="auto" stroke="black" stroke-linecap="square" width="586" stroke-miterlimit="10" shape-rendering="auto" stroke-opacity="1" fill="black" stroke-dasharray="none" font-weight="normal" stroke-width="1" height="505" font-family="'Dialog'" font-style="normal" stroke-linejoin="miter" font-size="12px" stroke-dashoffset="0" image-rendering="auto">
  <!--Generated by ySVG 2.5-->
  <defs id="genericDefs"/>
  <g>
    <defs id="defs1">
      <clipPath clipPathUnits="userSpaceOnUse" id="clipPath1">
        <path d="M0 0 L586 0 L586 505 L0 505 L0 0 Z"/>
      </clipPath>
      <clipPath clipPathUnits="userSpaceOnUse" id="clipPath2">
        <path d="M480 217 L1066 217 L1066 722 L480 722 L480 217 Z"/>
      </clipPath>
    </defs>
    <g fill="white" text-rendering="geometricPrecision" shape-rendering="geometricPrecision" transform="translate(-480,-217)" stroke="white">
      <rect x="480" width="586" height="505" y="217" clip-path="url(#clipPath2)" stroke="none"/>
    </g>
    <g fill="rgb(124,196,255)" text-rendering="geometricPrecision" shape-rendering="geometricPrecision" transform="matrix(1,0,0,1,-480,-217)" stroke="rgb(124,196,255)">
      <rect x="620" width="431" height="334" y="232" clip-path="url(#clipPath2)" stroke="none"/>
    </g>
    <g font-size="24px" stroke-linecap="butt" transform="matrix(1,0,0,1,-480,-217)" text-rendering="geometricPrecision" font-family="sans-serif" shape-rendering="geometricPrecision" font-weight="bold" stroke-miterlimit="1.45">
      <text x="690.7793" xml:space="preserve" y="275.9277" clip-path="url(#clipPath2)" stroke="none">Measurement Framework</text>
      <rect fill="none" x="620" width="431" height="334" y="232" clip-path="url(#clipPath2)"/>
    </g>
    <g fill="rgb(153,204,0)" text-rendering="geometricPrecision" shape-rendering="geometricPrecision" transform="matrix(1,0,0,1,-480,-217)" stroke="rgb(153,204,0)">
      <rect x="495" width="556" height="141" y="566" clip-path="url(#clipPath2)" stroke="none"/>
    </g>
    <g font-size="16px" stroke-linecap="butt" transform="matrix(1,0,0,1,-480,-217)" text-rendering="geometricPrecision" font-family="sans-serif" shape-rendering="geometricPrecision" font-weight="bold" stroke-miterlimit="1.45">
      <text x="642.3047" xml:space="preserve" y="610.2852" clip-path="url(#clipPath2)" stroke="none">Hardware Abstraction Layer (HAL)</text>
      <rect fill="none" x="495" width="556" height="141" y="566" clip-path="url(#clipPath2)"/>
    </g>
    <g fill="rgb(51,153,102)" text-rendering="geometricPrecision" shape-rendering="geometricPrecision" transform="matrix(1,0,0,1,-480,-217)" stroke="rgb(51,153,102)">
      <rect x="510.5" width="67" height="55" y="626.5" clip-path="url(#clipPath2)" stroke="none"/>
    </g>
    <g font-size="16px" stroke-linecap="butt" transform="matrix(1,0,0,1,-480,-217)" text-rendering="geometricPrecision" font-family="sans-serif" shape-rendering="geometricPrecision" stroke-miterlimit="1.45">
      <text x="523.9961" xml:space="preserve" y="660.2852" clip-path="url(#clipPath2)" stroke="none">GPIO</text>
      <rect fill="none" x="510.5" width="67" height="55" y="626.5" clip-path="url(#clipPath2)"/>
    </g>
    <g fill="rgb(51,153,102)" text-rendering="geometricPrecision" shape-rendering="geometricPrecision" transform="matrix(1,0,0,1,-480,-217)" stroke="rgb(51,153,102)">
      <rect x="602" width="67" height="55" y="626.5" clip-path="url(#clipPath2)" stroke="none"/>
    </g>
    <g font-size="16px" stroke-linecap="butt" transform="matrix(1,0,0,1,-480,-217)" text-rendering="geometricPrecision" font-family="sans-serif" shape-rendering="geometricPrecision" stroke-miterlimit="1.45">
      <text x="622.6055" xml:space="preserve" y="660.2852" clip-path="url(#clipPath2)" stroke="none">SPI</text>
      <rect fill="none" x="602" width="67" height="55" y="626.5" clip-path="url(#clipPath2)"/>
    </g>
    <g fill="rgb(51,153,102)" text-rendering="geometricPrecision" shape-rendering="geometricPrecision" transform="matrix(1,0,0,1,-480,-217)" stroke="rgb(51,153,102)">
      <rect x="693.5" width="67" height="55" y="626.5" clip-path="url(#clipPath2)" stroke="none"/>
    </g>
    <g font-size="16px" stroke-linecap="butt" transform="matrix(1,0,0,1,-480,-217)" text-rendering="geometricPrecision" font-family="sans-serif" shape-rendering="geometricPrecision" stroke-miterlimit="1.45">
      <text x="714.5508" xml:space="preserve" y="660.2852" clip-path="url(#clipPath2)" stroke="none">I2C</text>
      <rect fill="none" x="693.5" width="67" height="55" y="626.5" clip-path="url(#clipPath2)"/>
    </g>
    <g fill="rgb(51,153,102)" text-rendering="geometricPrecision" shape-rendering="geometricPrecision" transform="matrix(1,0,0,1,-480,-217)" stroke="rgb(51,153,102)">
      <rect x="785" width="67" height="55" y="626.5" clip-path="url(#clipPath2)" stroke="none"/>
    </g>
    <g font-size="16px" stroke-linecap="butt" transform="matrix(1,0,0,1,-480,-217)" text-rendering="geometricPrecision" font-family="sans-serif" shape-rendering="geometricPrecision" stroke-miterlimit="1.45">
      <text x="796.7227" xml:space="preserve" y="660.2852" clip-path="url(#clipPath2)" stroke="none">UART</text>
      <rect fill="none" x="785" width="67" height="55" y="626.5" clip-path="url(#clipPath2)"/>
    </g>
    <g fill="rgb(51,153,102)" text-rendering="geometricPrecision" shape-rendering="geometricPrecision" transform="matrix(1,0,0,1,-480,-217)" stroke="rgb(51,153,102)">
      <rect x="876.5" width="67" height="55" y="626.5" clip-path="url(#clipPath2)" stroke="none"/>
    </g>
    <g font-size="16px" stroke-linecap="butt" transform="matrix(1,0,0,1,-480,-217)" text-rendering="geometricPrecision" font-family="sans-serif" shape-rendering="geometricPrecision" stroke-miterlimit="1.45">
      <text x="892.2227" xml:space="preserve" y="660.2852" clip-path="url(#clipPath2)" stroke="none">DMA</text>
      <rect fill="none" x="876.5" width="67" height="55" y="626.5" clip-path="url(#clipPath2)"/>
    </g>
    <g fill="rgb(255,153,0)" text-rendering="geometricPrecision" shape-rendering="geometricPrecision" transform="matrix(1,0,0,1,-480,-217)" stroke="rgb(255,153,0)">
      <rect x="758" width="293" height="99.5" y="466.5" clip-path="url(#clipPath2)" stroke="none"/>
    </g>
    <g font-size="16px" stroke-linecap="butt" transform="matrix(1,0,0,1,-480,-217)" text-rendering="geometricPrecision" font-family="sans-serif" shape-rendering="geometricPrecision" stroke-miterlimit="1.45">
      <text x="845.9097" xml:space="preserve" y="522.5352" clip-path="url(#clipPath2)" stroke="none">ProtoBuf (nanopb)</text>
      <rect fill="none" x="758" width="293" height="99.5" y="466.5" clip-path="url(#clipPath2)"/>
    </g>
    <g fill="white" text-rendering="geometricPrecision" shape-rendering="geometricPrecision" transform="matrix(1,0,0,1,-480,-217)" stroke="white">
      <rect x="777" y="453" clip-path="url(#clipPath2)" width="258" rx="4" ry="4" height="30" stroke="none"/>
    </g>
    <g font-size="16px" stroke-linecap="butt" transform="matrix(1,0,0,1,-480,-217)" text-rendering="geometricPrecision" font-family="sans-serif" shape-rendering="geometricPrecision" stroke-miterlimit="1.45">
      <text x="893.1055" xml:space="preserve" y="474.2852" clip-path="url(#clipPath2)" stroke="none">API</text>
      <rect x="777" y="453" clip-path="url(#clipPath2)" fill="none" width="258" rx="4" ry="4" height="30"/>
    </g>
    <g fill="rgb(51,153,102)" text-rendering="geometricPrecision" shape-rendering="geometricPrecision" transform="matrix(1,0,0,1,-480,-217)" stroke="rgb(51,153,102)">
      <rect x="968" width="67" height="55" y="626.5" clip-path="url(#clipPath2)" stroke="none"/>
    </g>
    <g font-size="16px" stroke-linecap="butt" transform="matrix(1,0,0,1,-480,-217)" text-rendering="geometricPrecision" font-family="sans-serif" shape-rendering="geometricPrecision" stroke-miterlimit="1.45">
      <text x="981.0586" xml:space="preserve" y="660.2852" clip-path="url(#clipPath2)" stroke="none">Timer</text>
      <rect fill="none" x="968" width="67" height="55" y="626.5" clip-path="url(#clipPath2)"/>
    </g>
    <g fill="silver" text-rendering="geometricPrecision" shape-rendering="geometricPrecision" transform="matrix(1,0,0,1,-480,-217)" stroke="silver">
      <rect x="495" width="125" height="334" y="232" clip-path="url(#clipPath2)" stroke="none"/>
    </g>
    <g font-size="16px" stroke-linecap="butt" transform="matrix(1,0,0,1,-480,-217)" text-rendering="geometricPrecision" font-family="sans-serif" shape-rendering="geometricPrecision" font-weight="bold" stroke-miterlimit="1.45">
      <text x="528.6055" xml:space="preserve" y="277.5328" clip-path="url(#clipPath2)" stroke="none">Utilities</text>
      <rect fill="none" x="495" width="125" height="334" y="232" clip-path="url(#clipPath2)"/>
    </g>
    <g fill="white" text-rendering="geometricPrecision" shape-rendering="geometricPrecision" transform="matrix(1,0,0,1,-480,-217)" stroke="white">
      <rect x="605.5" y="289" clip-path="url(#clipPath2)" width="32.75" rx="4" ry="4" height="235" stroke="none"/>
    </g>
    <g font-size="16px" stroke-linecap="butt" transform="matrix(1,0,0,1,-480,-217)" text-rendering="geometricPrecision" font-family="sans-serif" shape-rendering="geometricPrecision" stroke-miterlimit="1.45">
      <text x="608.9805" xml:space="preserve" y="412.7852" clip-path="url(#clipPath2)" stroke="none">API</text>
      <rect x="605.5" y="289" clip-path="url(#clipPath2)" fill="none" width="32.75" rx="4" ry="4" height="235"/>
    </g>
    <g fill="rgb(153,153,153)" text-rendering="geometricPrecision" shape-rendering="geometricPrecision" transform="matrix(1,0,0,1,-480,-217)" stroke="rgb(153,153,153)">
      <rect x="510" width="86" height="45" y="307.5" clip-path="url(#clipPath2)" stroke="none"/>
    </g>
    <g font-size="16px" stroke-linecap="butt" transform="matrix(1,0,0,1,-480,-217)" text-rendering="geometricPrecision" font-family="sans-serif" shape-rendering="geometricPrecision" stroke-miterlimit="1.45">
      <text x="520.5391" xml:space="preserve" y="326.4844" clip-path="url(#clipPath2)" stroke="none">Message</text>
      <text x="523.6602" xml:space="preserve" y="346.0859" clip-path="url(#clipPath2)" stroke="none">Framing</text>
      <rect fill="none" x="510" width="86" height="45" y="307.5" clip-path="url(#clipPath2)"/>
    </g>
    <g fill="rgb(153,153,153)" text-rendering="geometricPrecision" shape-rendering="geometricPrecision" transform="matrix(1,0,0,1,-480,-217)" stroke="rgb(153,153,153)">
      <rect x="510" width="86" height="39" y="415.5" clip-path="url(#clipPath2)" stroke="none"/>
    </g>
    <g font-size="16px" stroke-linecap="butt" transform="matrix(1,0,0,1,-480,-217)" text-rendering="geometricPrecision" font-family="sans-serif" shape-rendering="geometricPrecision" stroke-miterlimit="1.45">
      <text x="525.4258" xml:space="preserve" y="441.2852" clip-path="url(#clipPath2)" stroke="none">Ringbuf</text>
      <rect fill="none" x="510" width="86" height="39" y="415.5" clip-path="url(#clipPath2)"/>
    </g>
    <g fill="white" text-rendering="geometricPrecision" shape-rendering="geometricPrecision" transform="matrix(1,0,0,1,-480,-217)" stroke="white">
      <rect x="510.5" y="551" clip-path="url(#clipPath2)" width="524.25" rx="4" ry="4" height="30" stroke="none"/>
    </g>
    <g font-size="16px" stroke-linecap="butt" transform="matrix(1,0,0,1,-480,-217)" text-rendering="geometricPrecision" font-family="sans-serif" shape-rendering="geometricPrecision" stroke-miterlimit="1.45">
      <text x="741.9453" xml:space="preserve" y="572.2852" clip-path="url(#clipPath2)" stroke="none">HAL API</text>
      <rect x="510.5" y="551" clip-path="url(#clipPath2)" fill="none" width="524.25" rx="4" ry="4" height="30"/>
    </g>
    <g fill="rgb(153,153,153)" text-rendering="geometricPrecision" shape-rendering="geometricPrecision" transform="matrix(1,0,0,1,-480,-217)" stroke="rgb(153,153,153)">
      <rect x="509" width="86" height="39" y="364.5" clip-path="url(#clipPath2)" stroke="none"/>
    </g>
    <g font-size="16px" stroke-linecap="butt" transform="matrix(1,0,0,1,-480,-217)" text-rendering="geometricPrecision" font-family="sans-serif" shape-rendering="geometricPrecision" stroke-miterlimit="1.45">
      <text x="525.7695" xml:space="preserve" y="390.2852" clip-path="url(#clipPath2)" stroke="none">CRC16</text>
      <rect fill="none" x="509" width="86" height="39" y="364.5" clip-path="url(#clipPath2)"/>
    </g>
    <g fill="rgb(153,153,153)" text-rendering="geometricPrecision" shape-rendering="geometricPrecision" transform="matrix(1,0,0,1,-480,-217)" stroke="rgb(153,153,153)">
      <rect x="510" width="86" height="39" y="466.5" clip-path="url(#clipPath2)" stroke="none"/>
    </g>
    <g font-size="16px" stroke-linecap="butt" transform="matrix(1,0,0,1,-480,-217)" text-rendering="geometricPrecision" font-family="sans-serif" shape-rendering="geometricPrecision" stroke-miterlimit="1.45">
      <text x="546.332" xml:space="preserve" y="492.2852" clip-path="url(#clipPath2)" stroke="none">...</text>
      <rect fill="none" x="510" width="86" height="39" y="466.5" clip-path="url(#clipPath2)"/>
    </g>
    <g fill="rgb(23,126,255)" text-rendering="geometricPrecision" shape-rendering="geometricPrecision" transform="matrix(1,0,0,1,-480,-217)" stroke="rgb(23,126,255)">
      <rect x="650" width="84" height="77" y="299.5" clip-path="url(#clipPath2)" stroke="none"/>
    </g>
    <g font-size="16px" stroke-linecap="butt" transform="matrix(1,0,0,1,-480,-217)" text-rendering="geometricPrecision" font-family="sans-serif" shape-rendering="geometricPrecision" stroke-miterlimit="1.45">
      <text x="677.3359" xml:space="preserve" y="344.2852" clip-path="url(#clipPath2)" stroke="none">IMU</text>
      <rect fill="none" x="650" width="84" height="77" y="299.5" clip-path="url(#clipPath2)"/>
    </g>
    <g fill="rgb(23,126,255)" text-rendering="geometricPrecision" shape-rendering="geometricPrecision" transform="matrix(1,0,0,1,-480,-217)" stroke="rgb(23,126,255)">
      <rect x="750.25" width="84" height="77" y="299.5" clip-path="url(#clipPath2)" stroke="none"/>
    </g>
    <g font-size="16px" stroke-linecap="butt" transform="matrix(1,0,0,1,-480,-217)" text-rendering="geometricPrecision" font-family="sans-serif" shape-rendering="geometricPrecision" stroke-miterlimit="1.45">
      <text x="766.9023" xml:space="preserve" y="344.2852" clip-path="url(#clipPath2)" stroke="none">Sensor</text>
      <rect fill="none" x="750.25" width="84" height="77" y="299.5" clip-path="url(#clipPath2)"/>
    </g>
    <g fill="rgb(23,126,255)" text-rendering="geometricPrecision" shape-rendering="geometricPrecision" transform="matrix(1,0,0,1,-480,-217)" stroke="rgb(23,126,255)">
      <rect x="850.5" width="84" height="77" y="299.5" clip-path="url(#clipPath2)" stroke="none"/>
    </g>
    <g font-size="16px" stroke-linecap="butt" transform="matrix(1,0,0,1,-480,-217)" text-rendering="geometricPrecision" font-family="sans-serif" shape-rendering="geometricPrecision" stroke-miterlimit="1.45">
      <text x="862.707" xml:space="preserve" y="344.2852" clip-path="url(#clipPath2)" stroke="none">Actuator</text>
      <rect fill="none" x="850.5" width="84" height="77" y="299.5" clip-path="url(#clipPath2)"/>
    </g>
    <g fill="rgb(23,126,255)" text-rendering="geometricPrecision" shape-rendering="geometricPrecision" transform="matrix(1,0,0,1,-480,-217)" stroke="rgb(23,126,255)">
      <rect x="950.75" width="84" height="77" y="299.5" clip-path="url(#clipPath2)" stroke="none"/>
    </g>
    <g font-size="16px" stroke-linecap="butt" transform="matrix(1,0,0,1,-480,-217)" text-rendering="geometricPrecision" font-family="sans-serif" shape-rendering="geometricPrecision" stroke-miterlimit="1.45">
      <text x="969.625" xml:space="preserve" y="344.2852" clip-path="url(#clipPath2)" stroke="none">Config</text>
      <rect fill="none" x="950.75" width="84" height="77" y="299.5" clip-path="url(#clipPath2)"/>
    </g>
  </g>
</svg>
